# xmcd
#
# Track frame offsets:
#	183
#	15993
#	33943
#	52620
#	70308
#	87618
#	103910
#	119693
#	133045
#	144950
#	162153
#
# Disc length: 2621 seconds
#
# Revision: 0
# Processed by: cddbd v1.4PL0 Copyright (c) Steve Scherf et al.
# Submitted via: EasyCDDAExtractor 4.6.9.1
#
DISCID=8f0a3b0b
DTITLE=Sara Davis - Tundra
DYEAR=1994
DGENRE=Country
TTITLE0=keep walking
TTITLE1=tiny pieces
TTITLE2=tundra
TTITLE3=banyan day
TTITLE4=deep blue water
TTITLE5=taxis and trains
TTITLE6=when i'm falling
TTITLE7=looking for another bridge
TTITLE8=day, by day, by day
TTITLE9=walking white flag
TTITLE10=your keys, your coat, your hat
EXTD=
EXTT0=
EXTT1=
EXTT2=
EXTT3=
EXTT4=
EXTT5=
EXTT6=
EXTT7=
EXTT8=
EXTT9=
EXTT10=
PLAYORDER=
